<?xml version="1.0" encoding="utf-8"?>
<svg id="Layer_1" data-name="Layer 1" viewBox="0 0 735 852" xmlns="http://www.w3.org/2000/svg">
  <defs>
    <style>.cls-1{fill:none;}.cls-2{clip-path:url(#clip-path);}.cls-3{fill:#428bca;}.cls-4{opacity:0.25;fill:url(#linear-gradient);}.cls-5{fill:#3674a8;}.cls-6{fill:#e6b35a;}.cls-7{font-size:25px;font-family:MyriadPro-Regular, Myriad Pro;}.cls-13,.cls-7{fill:#fff;}.cls-8{letter-spacing:0.01em;}.cls-9{letter-spacing:-0.04em;}.cls-10{letter-spacing:-0.02em;}.cls-11{letter-spacing:-0.01em;}.cls-12{letter-spacing:0em;}.cls-13{opacity:0.9;}</style>
    <clipPath id="clip-path">
      <polygon class="cls-1" points="369.51 7.4 728.21 214.47 728.21 636.62 369.51 845.03 2.79 636.62 2.79 214.47 369.51 7.4"/>
    </clipPath>
    <circle id="path-1" cx="128" cy="128" r="128"/>
    <linearGradient x1="0.5" y1="0.10483453750610351" x2="0.5" y2="0" id="linearGradient-3">
      <stop stop-color="#B70000" offset="0"/>
      <stop stop-color="#FF2E2E" offset="1"/>
    </linearGradient>
    <linearGradient x1="0.9422628784179687" y1="0.28490758895874024" x2="0.34905502319335935" y2="0.6194444274902344" id="linearGradient-4">
      <stop stop-color="#B70000" offset="0"/>
      <stop stop-color="#FF2E2E" offset="1"/>
    </linearGradient>
    <linearGradient x1="0.8855851745605469" y1="0.5" x2="0.05268428802490235" y2="1" id="linearGradient-5">
      <stop stop-color="#B70000" offset="0"/>
      <stop stop-color="#FF2E2E" offset="1"/>
    </linearGradient>
    <linearGradient x1="0.9526502990722656" y1="0.0931339454650879" x2="0.11983670234680176" y2="0.6208335494995117" id="linearGradient-6">
      <stop stop-color="#B70000" offset="0"/>
      <stop stop-color="#FF2E2E" offset="1"/>
    </linearGradient>
    <linearGradient x1="0.6715713500976562" y1="0.7656086730957031" x2="0" y2="0.9430805969238282" id="linearGradient-7">
      <stop stop-color="#B70000" offset="0"/>
      <stop stop-color="#FF2E2E" offset="1"/>
    </linearGradient>
    <linearGradient x1="0.8066921997070312" y1="0.5217813873291015" x2="0" y2="0.5" id="linearGradient-8">
      <stop stop-color="#B70000" offset="0"/>
      <stop stop-color="#FF2E2E" offset="1"/>
    </linearGradient>
    <linearGradient x1="0.7662275695800781" y1="0.5" x2="0.04688643455505371" y2="0.2887784194946289" id="linearGradient-9">
      <stop stop-color="#B70000" offset="0"/>
      <stop stop-color="#FF2E2E" offset="1"/>
    </linearGradient>
    <linearGradient x1="0.9374028015136718" y1="0.05415091037750244" x2="0.08898053169250489" y2="0.10995457649230957" id="linearGradient-10">
      <stop stop-color="#B70000" offset="0"/>
      <stop stop-color="#FF2E2E" offset="1"/>
    </linearGradient>
    <linearGradient x1="0.10938956260681153" y1="0.1145321273803711" x2="0.5504903793334961" y2="0.9113408660888672" id="linearGradient-11">
      <stop stop-color="#D13700" offset="0"/>
      <stop stop-color="#F94721" offset="1"/>
    </linearGradient>
    <linearGradient x1="0.11961026191711426" y1="0.3329003143310547" x2="1" y2="1" id="linearGradient-12">
      <stop stop-color="#B70000" offset="0"/>
      <stop stop-color="#FF2E2E" offset="1"/>
    </linearGradient>
    <linearGradient x1="0.047967996597290036" y1="0" x2="0.7888980865478515" y2="0.7644228363037109" id="linearGradient-13">
      <stop stop-color="#B70000" offset="0"/>
      <stop stop-color="#FF2E2E" offset="1"/>
    </linearGradient>
    <linearGradient x1="0.11983670234680176" y1="0.20016578674316407" x2="0.8589105987548828" y2="0.8586819458007813" id="linearGradient-14">
      <stop stop-color="#B70000" offset="0"/>
      <stop stop-color="#FF2E2E" offset="1"/>
    </linearGradient>
    <linearGradient x1="0" y1="0.036527020931243895" x2="0.9569309997558594" y2="0.5" id="linearGradient-15">
      <stop stop-color="#B70000" offset="0"/>
      <stop stop-color="#FF2E2E" offset="1"/>
    </linearGradient>
    <linearGradient x1="0.20672012329101563" y1="0.3883719635009766" x2="0.9735701751708984" y2="1" id="linearGradient-16">
      <stop stop-color="#B70000" offset="0"/>
      <stop stop-color="#FF2E2E" offset="1"/>
    </linearGradient>
    <linearGradient x1="0.2505616569519043" y1="0.10000341415405273" x2="1" y2="0.8864502716064453" id="linearGradient-17">
      <stop stop-color="#B70000" offset="0"/>
      <stop stop-color="#FF2E2E" offset="1"/>
    </linearGradient>
  </defs>
  <title/>
  <g class="cls-2"/>
  <path class="cls-5" d="M705.61,196.21,427.81,35.82,367.5,1,307.19,35.82,29.37,196.22.09,213.13V637.38l29.28,16.91,281.28,162.4,56.85,32.82,56.85-32.82L705.61,654.3l29.3-16.92V213.13Zm0,425.26L367.49,816.68,29.37,621.47V231L367.49,35.82h0L705.61,231Z" style="fill: rgb(219, 18, 18);"/>
  <path class="cls-6" d="M367,633.9c.29-.29.6-.59.93-.89h-.26Z"/>
  <text class="cls-7" transform="matrix(0.86, -0.5, 0.5, 0.86, 369.28, 809.1)" style="white-space: pre;"><tspan class="cls-8">ww</tspan><tspan class="cls-9" x="37.4" y="0">w</tspan><tspan x="54.82" y="0">.rinterface.com</tspan><tspan x="133.2" y="0">.</tspan></text>
  <g transform="matrix(2.641465, 0, 0, 2.646468, 29.69669, 86.599678)" style="">
    <mask id="mask-2" fill="white">
      <circle cx="128" cy="128" r="128"/>
    </mask>
    <g mask="url(#mask-2)" fill-rule="nonzero">
      <g transform="translate(-1.920000, 0.000000)">
        <circle fill="url(#linearGradient-3)" cx="129.92" cy="128" r="128"/>
        <path d="M30.6988749,208.871414 C32,215.68 68.16,250.304004 94.08,251.52 C94.08,251.52 97.5034707,236.909398 100.063471,212.589398 L30.6988749,208.871414 Z" fill="url(#linearGradient-4)"/>
        <path d="M30.6988749,208.871414 C32,215.68 68.16,250.304004 94.08,251.52 C94.08,251.52 97.5034707,236.909398 100.063471,212.589398 L30.6988749,208.871414 Z" fill="#FD4B00"/>
        <path d="M99.9123731,212.818748 C103.502435,198.322797 109.20876,176.927485 116.48,159.36 L30.6988749,208.871414 L99.9123731,212.818748 Z" fill="url(#linearGradient-5)"/>
        <path d="M99.9123731,212.818748 C103.502435,198.322797 109.20876,176.927485 116.48,159.36 L30.6988749,208.871414 L99.9123731,212.818748 Z" fill-opacity="0.8" fill="#FD4B00"/>
        <path d="M116.148176,160.578611 L4.91106395,155.635793 C3.84,165.76 17.28,200.96 30.6988749,208.871414 L116.148176,160.578611 Z" fill="url(#linearGradient-6)"/>
        <path d="M116.148176,160.578611 L4.91106395,155.635793 C3.84,165.76 17.28,200.96 30.6988749,208.871414 L116.148176,160.578611 Z" fill-opacity="0.6" fill="#FD4B00"/>
        <path d="M116.218114,160.969825 C120.85847,149.758618 137.275516,118.800397 139.52,115.2 L4.91106395,155.635793" fill="url(#linearGradient-7)"/>
        <path d="M116.218114,160.969825 C120.85847,149.758618 137.275516,118.800397 139.52,115.2 L4.91106395,155.635793" fill-opacity="0.4" fill="#FD4B00"/>
        <path d="M142.59394,115.815689 L16.3973673,68.8110653 C-2.56,87.68 -2.56,145.92 4.91106395,155.635793 L142.59394,115.815689 Z" fill="url(#linearGradient-8)"/>
        <path d="M142.59394,115.815689 L16.3973673,68.8110653 C-2.56,87.68 -2.56,145.92 4.91106395,155.635793 L142.59394,115.815689 Z" fill-opacity="0.2" fill="#FD4B00"/>
        <path d="M139.518489,115.434847 C158.718489,88.5548468 176.700771,63.5503944 189.44,49.28 L16.3973673,68.8110653 L139.518489,115.434847 Z" fill="url(#linearGradient-9)"/>
        <path d="M188.43948,51.7141996 C201.337731,37.26567 209.92,27.52 209.92,27.52 L91.905152,27.6147153 L50.432002,27.6480005 C31.36,39.04 21.12,48.1655326 16.3973673,68.8110653 L188.43948,51.7141996 Z" fill="url(#linearGradient-10)"/>
        <path d="M188.43948,51.7141996 C201.337731,37.26567 209.92,27.52 209.92,27.52 L91.905152,27.6147153 L50.432002,27.6480005 C31.36,39.04 21.12,48.1655326 16.3973673,68.8110653 L188.43948,51.7141996 Z" fill-opacity="0.1" fill="#632003" style=""/>
        <path d="M177.196797,246.988808 C177.196797,246.988808 130.995596,223.894287 107.894995,212.347027 C106.70333,211.751352 76.6199066,243.966003 101.669953,252.863002 C126.72,261.76 160.64,256 177.196797,246.988808 Z" fill="url(#linearGradient-11)"/>
        <path d="M177.196797,246.988808 C177.196797,246.988808 130.995596,223.894287 107.894995,212.347027 C106.70333,211.751352 76.6199066,243.966003 101.669953,252.863002 C126.72,261.76 160.64,256 177.196797,246.988808 Z" fill="#FD4B00"/>
        <path d="M177.196797,246.988808 L122.88,162.56 C122.88,162.56 116.281068,179.628067 112,193.28 C108.62643,204.038006 106.233186,213.811296 106.740486,214.064879 C129.881688,225.632435 177.196797,246.988808 177.196797,246.988808 Z" fill="url(#linearGradient-12)"/>
        <path d="M177.196797,246.988808 L122.88,162.56 C122.88,162.56 116.281068,179.628067 112,193.28 C108.62643,204.038006 106.233186,213.811296 106.740486,214.064879 C129.881688,225.632435 177.196797,246.988808 177.196797,246.988808 Z" fill-opacity="0.8" fill="#FD4B00"/>
        <path d="M177.193883,246.987055 C200.96,241.92 232.96,211.2 236.518399,198.886406 L122.88,163.2 L177.193883,246.987055 Z" fill="url(#linearGradient-13)"/>
        <path d="M177.193883,246.987055 C200.96,241.92 232.96,211.2 236.518399,198.886406 L122.88,163.2 L177.193883,246.987055 Z" fill-opacity="0.6" fill="#FD4B00"/>
        <path d="M236.515385,198.886721 C236.515385,198.886721 176.994995,144.004381 146.800197,117.52657 C146.480956,117.246627 136.827184,132.298634 131.2,143.36 C125.481462,154.600941 122.090656,163.634383 122.614597,163.798185 C160.306881,175.582104 236.515385,198.886721 236.515385,198.886721 Z" fill="url(#linearGradient-14)"/>
        <path d="M236.515385,198.886721 C236.515385,198.886721 176.994995,144.004381 146.800197,117.52657 C146.480956,117.246627 136.827184,132.298634 131.2,143.36 C125.481462,154.600941 122.090656,163.634383 122.614597,163.798185 C160.306881,175.582104 236.515385,198.886721 236.515385,198.886721 Z" fill-opacity="0.4" fill="#FD4B00"/>
        <path d="M236.518399,198.886406 C250.88,184.32 261.12,161.28 257.92,128 L144,117.76 L236.518399,198.886406 Z" fill="url(#linearGradient-15)"/>
        <path d="M236.518399,198.886406 C250.88,184.32 261.12,161.28 257.92,128 L144,117.76 L236.518399,198.886406 Z" fill-opacity="0.2" fill="#FD4B00"/>
        <path d="M257.92,128 C257.92,128 216.241044,78.5972883 194.56,55.04 C194.31762,54.7766451 180.677912,70.5495069 169.6,85.12 C157.568545,100.944664 145.423093,118.995334 145.92,119.04 C182.9389,122.367542 257.92,128 257.92,128 Z" fill="url(#linearGradient-16)"/>
        <path d="M257.92,128 C257.92,128 216.241044,78.5972883 194.56,55.04 C194.31762,54.7766451 180.677912,70.5495069 169.6,85.12 C157.568545,100.944664 145.423093,118.995334 145.92,119.04 C182.9389,122.367542 257.92,128 257.92,128 Z" fill-opacity="0" fill="#FD4B00"/>
        <path d="M257.92,128 C257.92,69.12 226.56,40.32 215.663133,33.0755079 C215.663133,33.0755079 204.8,44.16 192.64,56.96 L257.92,128 Z" fill="url(#linearGradient-17)"/>
        <path d="M257.92,128 C257.92,69.12 226.56,40.32 215.663133,33.0755079 C215.663133,33.0755079 204.8,44.16 192.64,56.96 L257.92,128 Z" fill-opacity="0.1" fill="#632003"/>
        <path d="M50.304,27.6552173 L209.792,27.6552173 C192.127912,45.3193056 176.064072,63.6231226 161.6,82.5672173 C147.135928,101.511312 134.720052,121.415113 124.352,142.279217 C113.983948,163.143322 106.048028,185.095102 100.544,208.135217 C95.0399725,231.175332 92.4159987,255.495089 92.672,281.095217 L100.352,281.095217 C100.352,254.983087 103.167972,230.599331 108.8,207.943217 C114.432028,185.287104 122.367949,163.783319 132.608,143.431217 C142.848051,123.079116 155.263927,103.559311 169.856,84.8712173 C184.448073,66.1831238 200.575912,48.0073056 218.24,30.3432173 L218.24,19.9752173 L50.304,19.9752173 L50.304,27.6552173 Z" fill="#FFFFFF"/>
      </g>
    </g>
  </g>
  <text x="608.255" y="70.446" style="white-space: pre; fill: rgb(51, 51, 51); font-size: 24px;"> </text>
  <text class="cls-13" transform="matrix(0.864507, -0.50262, 0.50262, 0.864507, 432.567474, 753.323547)" style="white-space: pre; font-family: MyriadPro-Regular, &quot;Myriad Pro&quot;; font-size: 24.9px; line-height: 40px; perspective-origin: 107.234px 0px; fill: rgb(255, 255, 255);">https://rinterface.com</text>
</svg>